<svg fill="#3f3f40" xmlns="http://www.w3.org/2000/svg" viewBox="0 0 64 64" width="128px" height="128px"><path d="M 46.099609 0 C 44.588646 -0.031329346 42.909344 0.10092187 41.042969 0.45117188 C 25.332969 3.3961719 19.597328 8.0344688 19.361328 8.2304688 C 19.047328 8.4914687 18.923828 8.9166406 19.048828 9.3066406 C 19.173828 9.6946406 19.523641 9.9700469 19.931641 9.9980469 L 20.638672 10.046875 L 14.447266 14.167969 C 14.071266 14.417969 13.909734 14.887406 14.052734 15.316406 L 15.052734 18.316406 C 15.153734 18.621406 15.394172 18.857125 15.701172 18.953125 C 16.007172 19.052125 16.342609 18.993781 16.599609 18.800781 L 19.642578 16.519531 L 20.105469 17.447266 C 20.245469 17.727266 20.508406 17.924422 20.816406 17.982422 C 21.124406 18.041422 21.440875 17.951234 21.671875 17.740234 C 23.051875 16.489234 26.434609 13.522656 28.599609 11.972656 L 7.0976562 56.703125 C 6.9486562 57.014125 6.9693438 57.378922 7.1523438 57.669922 C 7.3353437 57.960922 7.656 58.136719 8 58.136719 L 9.5449219 58.136719 L 8.0292969 62.683594 C 7.8832969 63.123594 8.0561719 63.607563 8.4511719 63.851562 C 8.6131719 63.951563 8.7955625 64 8.9765625 64 C 9.2345625 64 9.4905469 63.900031 9.6855469 63.707031 L 15.353516 58.039062 C 15.357516 58.037062 15.361234 58.035203 15.365234 58.033203 C 50.188234 49.039203 53.953125 35.962953 53.953125 30.751953 C 53.953125 28.373953 51.988219 26.166563 50.699219 24.976562 C 52.550219 23.654563 56.249266 20.688422 58.697266 16.607422 C 60.447266 13.689422 59.964781 9.0559375 57.550781 5.5859375 C 56.013531 3.37675 52.647115 0.1357605 46.099609 0 z M 45.900391 1.9980469 C 51.693566 2.0784146 54.598781 4.8387969 55.910156 6.7246094 C 58.136156 9.9246094 58.124422 13.674172 56.982422 15.576172 C 53.933422 20.659172 48.575484 24.002156 48.521484 24.035156 C 48.239484 24.209156 48.062875 24.511797 48.046875 24.841797 C 48.031875 25.172797 48.180312 25.4895 48.445312 25.6875 C 49.421312 26.4195 51.953125 28.755 51.953125 30.75 C 51.953125 34.458 49.268031 47.247719 14.707031 56.136719 C 14.687031 56.141719 14.668437 56.147297 14.648438 56.154297 C 14.620438 56.160297 14.593406 56.168781 14.566406 56.175781 C 14.403406 56.222781 14.254766 56.309688 14.134766 56.429688 L 11.265625 59.298828 L 11.880859 57.453125 C 11.981859 57.149125 11.930188 56.813734 11.742188 56.552734 C 11.555188 56.291734 11.252641 56.136719 10.931641 56.136719 L 9.5898438 56.136719 L 31.714844 10.107422 C 31.891844 9.7374219 31.826828 9.2980937 31.548828 8.9960938 C 31.270828 8.6950937 30.835078 8.5922344 30.455078 8.7402344 C 29.919078 8.9462344 29.441406 9.1451719 29.066406 9.3261719 C 27.265406 10.192172 23.221594 13.685859 21.308594 15.380859 L 20.894531 14.552734 C 20.761531 14.287734 20.519469 14.093391 20.230469 14.025391 C 19.942469 13.958391 19.637391 14.021219 19.400391 14.199219 L 16.509766 16.365234 L 16.191406 15.40625 L 24.191406 10.082031 C 24.548406 9.8460312 24.712516 9.4071406 24.603516 8.9941406 C 24.494516 8.5801406 24.134031 8.2819531 23.707031 8.2519531 L 23.164062 8.2148438 C 26.124063 6.6438437 31.875109 4.2020625 41.412109 2.4140625 C 43.072609 2.103375 44.563504 1.9795005 45.900391 1.9980469 z M 43.373047 6.1835938 C 42.450688 6.1930938 41.515406 6.2305937 40.597656 6.2773438 L 40.201172 6.2988281 C 39.652172 6.3258281 38.970734 6.4116406 38.177734 6.5566406 C 37.860734 6.6136406 37.592125 6.8184219 37.453125 7.1074219 L 29.099609 24.568359 C 28.925609 24.930359 28.985 25.359156 29.25 25.660156 C 29.443 25.879156 29.718 26 30 26 C 30.105 26 30.210406 25.983266 30.316406 25.947266 C 31.894406 25.424266 34.815047 24.450688 37.123047 23.679688 L 39.318359 22.945312 C 42.525359 21.877313 46.087812 20.576297 47.757812 18.654297 C 48.586812 17.700297 49.642812 16.388813 50.507812 15.007812 C 50.545812 15.028813 50.585906 15.046453 50.628906 15.064453 C 50.900906 15.174453 51.453844 15.294281 52.089844 14.863281 C 53.119844 14.165281 53.955078 12.150078 53.955078 11.205078 C 53.955078 10.190078 53.130016 8.3390469 52.166016 7.6230469 C 51.544016 7.1600469 50.985031 7.2314063 50.707031 7.3164062 C 50.634031 7.3394062 50.561234 7.36825 50.490234 7.40625 C 48.789234 6.384 46.140125 6.1550937 43.373047 6.1835938 z M 43.060547 8.1894531 C 45.801141 8.1439375 49.291469 8.3344687 50.136719 9.7617188 C 50.388719 10.188719 50.913906 10.364781 51.378906 10.175781 C 51.445906 10.146781 51.507406 10.113266 51.566406 10.072266 C 51.781406 10.501266 51.951172 10.971078 51.951172 11.205078 C 51.951172 11.478078 51.702734 12.114516 51.427734 12.603516 C 51.109734 12.234516 50.687438 12.160156 50.398438 12.160156 C 50.018437 12.160156 49.670953 12.37775 49.501953 12.71875 C 48.849953 14.04475 47.722141 15.64375 46.244141 17.34375 C 44.792141 19.01475 40.819594 20.340734 38.683594 21.052734 L 36.486328 21.783203 C 35.044328 22.265203 33.360969 22.828594 31.917969 23.308594 L 39.033203 8.4375 C 39.523203 8.3605 39.948828 8.3138281 40.298828 8.2988281 L 40.695312 8.2773438 C 41.316563 8.2468438 42.147016 8.204625 43.060547 8.1894531 z M 17.408203 21.771484 C 17.019656 21.753063 16.637031 21.964391 16.457031 22.337891 C 16.217031 22.834891 16.427781 23.432875 16.925781 23.671875 L 18.728516 24.537109 C 18.868516 24.605109 19.014156 24.636719 19.160156 24.636719 C 19.532156 24.636719 19.8915 24.427359 20.0625 24.068359 C 20.3025 23.571359 20.09175 22.973375 19.59375 22.734375 L 17.791016 21.869141 C 17.667266 21.809391 17.537719 21.777625 17.408203 21.771484 z M 15.326172 26.103516 C 14.937625 26.085047 14.555 26.297172 14.375 26.669922 C 14.135 27.167922 14.34575 27.766859 14.84375 28.005859 L 16.644531 28.871094 C 16.784531 28.939094 16.932125 28.970703 17.078125 28.970703 C 17.450125 28.970703 17.806516 28.760344 17.978516 28.402344 C 18.218516 27.904344 18.009719 27.307359 17.511719 27.068359 L 15.708984 26.201172 C 15.585234 26.141422 15.455687 26.109672 15.326172 26.103516 z M 40.75 26.833984 C 37.612881 26.67582 33.016953 28.515391 26.626953 31.072266 C 26.140953 31.267266 25.918578 31.732125 25.517578 32.578125 C 25.420578 32.782125 25.282125 33.076844 25.203125 33.214844 C 25.110125 33.301844 25.034469 33.408344 24.980469 33.527344 L 19.087891 46.589844 C 18.924891 46.949844 18.991859 47.372969 19.255859 47.667969 C 19.448859 47.883969 19.721 48 20 48 C 20.104 48 20.207594 47.984172 20.308594 47.951172 C 26.405594 45.970172 32.158062 44.011797 35.539062 41.841797 C 38.930063 39.664797 42.576531 37.085266 43.894531 34.447266 C 44.966531 32.302266 45.569531 30.903734 44.894531 29.552734 C 43.989656 27.744109 42.632271 26.928883 40.75 26.833984 z M 40.083984 28.855469 C 41.575863 28.822398 42.540047 29.313641 43.107422 30.447266 C 43.340422 30.914266 42.954422 31.860734 42.107422 33.552734 C 40.857422 36.053734 36.373937 38.92825 34.460938 40.15625 C 31.680937 41.94125 26.848703 43.68775 21.845703 45.34375 L 26.726562 34.523438 C 26.923563 34.282437 27.089172 33.932547 27.326172 33.435547 C 27.410172 33.259547 27.536953 32.995172 27.626953 32.826172 C 33.646328 30.419297 37.59752 28.910586 40.083984 28.855469 z M 13.240234 30.4375 C 12.851313 30.419078 12.470266 30.630406 12.291016 31.003906 C 12.051016 31.500906 12.261766 32.098891 12.759766 32.337891 L 14.5625 33.203125 C 14.7025 33.271125 14.848141 33.302734 14.994141 33.302734 C 15.366141 33.302734 15.725484 33.093375 15.896484 32.734375 C 16.136484 32.237375 15.925734 31.639391 15.427734 31.400391 L 13.625 30.535156 C 13.501 30.475406 13.369875 30.443641 13.240234 30.4375 z M 11.158203 34.771484 C 10.769234 34.753391 10.387031 34.963938 10.207031 35.335938 C 9.9680313 35.833937 10.177781 36.432875 10.675781 36.671875 L 12.478516 37.537109 C 12.618516 37.605109 12.766109 37.636719 12.912109 37.636719 C 13.284109 37.636719 13.642453 37.428312 13.814453 37.070312 C 14.053453 36.572313 13.843703 35.973375 13.345703 35.734375 L 11.542969 34.867188 C 11.418969 34.807688 11.287859 34.777516 11.158203 34.771484 z M 9.0761719 39.103516 C 8.687625 39.085047 8.3069531 39.297172 8.1269531 39.669922 C 7.8869531 40.167922 8.09575 40.766859 8.59375 41.005859 L 10.396484 41.871094 C 10.536484 41.939094 10.682125 41.970703 10.828125 41.970703 C 11.200125 41.970703 11.559469 41.760344 11.730469 41.402344 C 11.970469 40.904344 11.759719 40.307359 11.261719 40.068359 L 9.4609375 39.201172 C 9.3371875 39.141422 9.2056875 39.109672 9.0761719 39.103516 z M 6.9941406 43.4375 C 6.6053594 43.419219 6.2222187 43.630406 6.0429688 44.003906 C 5.8029688 44.500906 6.0137187 45.098891 6.5117188 45.337891 L 8.3144531 46.203125 C 8.4544531 46.271125 8.6000937 46.302734 8.7460938 46.302734 C 9.1180937 46.302734 9.4774375 46.093375 9.6484375 45.734375 C 9.8884375 45.237375 9.6776875 44.639391 9.1796875 44.400391 L 7.3769531 43.535156 C 7.2532031 43.475656 7.1237344 43.443594 6.9941406 43.4375 z M 32.537109 46.001953 C 32.407375 46.008047 32.276844 46.040109 32.152344 46.099609 C 30.185344 47.044609 28.000203 47.954641 25.658203 48.806641 C 25.139203 48.994641 24.872547 49.567891 25.060547 50.087891 C 25.208547 50.493891 25.591 50.744141 26 50.744141 C 26.113 50.744141 26.228797 50.726547 26.341797 50.685547 C 28.746797 49.812547 30.993531 48.876344 33.019531 47.902344 C 33.517531 47.663344 33.725328 47.065359 33.486328 46.568359 C 33.307078 46.194859 32.926313 45.983672 32.537109 46.001953 z M 4.9101562 47.771484 C 4.5212344 47.753203 4.1401875 47.964391 3.9609375 48.337891 C 3.7209375 48.834891 3.9297344 49.432875 4.4277344 49.671875 L 6.2304688 50.537109 C 6.3704687 50.605109 6.5180625 50.636719 6.6640625 50.636719 C 7.0360625 50.636719 7.3934531 50.427359 7.5644531 50.068359 C 7.8044531 49.571359 7.5956563 48.973375 7.0976562 48.734375 L 5.2949219 47.867188 C 5.1709219 47.807688 5.0397969 47.777578 4.9101562 47.771484 z M 22.404297 50.001953 C 22.275109 49.990172 22.140766 50.004375 22.009766 50.046875 C 20.958766 50.381875 19.865562 50.712109 18.726562 51.037109 C 18.195562 51.189109 17.887062 51.742438 18.039062 52.273438 C 18.165062 52.713437 18.565 53 19 53 C 19.09 53 19.183391 52.987891 19.275391 52.962891 C 20.434391 52.631891 21.548188 52.294125 22.617188 51.953125 C 23.143187 51.785125 23.433625 51.221313 23.265625 50.695312 C 23.139625 50.300812 22.791859 50.037297 22.404297 50.001953 z"/></svg>