<svg width="48" height="48" xmlns="http://www.w3.org/2000/svg">

 <g>
  <title>background</title>
  <rect fill="none" id="canvas_background" height="402" width="582" y="-1" x="-1"/>
 </g>
 <g>
  <title>Layer 1</title>
  <path id="svg_1" d="m45,29.316c0,-0.636999 -1.686001,-1.153 -3.769001,-1.153c-1.812,0 -3.32,0.391001 -3.682999,0.910999c-3.585999,-1.694 -7.173,-3.387999 -10.759001,-5.083c-1.247999,-0.59 -2.673,-0.584 -3.917999,0.014c-3.818001,1.837 -7.636001,3.674002 -11.454,5.511002c-0.863999,-0.126001 -1.907,-0.201 -3.032,-0.201c-2.977,0.000999 -5.385,0.517 -5.385,1.153999l0,3.460001c0,0.033001 0.033,0.063999 0.045,0.096001c-0.146,0.555 0.07,1.204998 0.649,1.477997c5.641,2.665001 11.281,5.329002 16.921999,7.994003c1.432001,0.676998 3.068001,0.670998 4.496,-0.016003c6.442001,-3.099998 12.883999,-6.198997 19.327,-9.299c0.484001,-0.232998 0.651001,-0.785999 0.509003,-1.246998c0.022999,-0.053001 0.051998,-0.105 0.051998,-0.16l0,-3.459002z" fill="#353535"/>
  <path id="svg_2" d="m20.615999,39.158001c-5.640999,-2.521999 -11.280999,-5.044003 -16.921999,-7.566002c-0.922,-0.411999 -0.926,-1.726999 -0.007,-2.146c6.395,-2.911999 12.789,-5.823999 19.184,-8.736c1.243999,-0.566999 2.67,-0.571999 3.917999,-0.014c5.880999,2.630001 11.762999,5.259001 17.643999,7.889c0.754002,0.337002 0.758003,1.414001 0.006001,1.756001c-6.441998,2.934002 -12.883999,5.868 -19.327,8.800999c-1.427999,0.650002 -3.063999,0.656002 -4.496,0.016003z" fill="#3f3f40"/>
  <path id="svg_3" d="m45,21.674999c0,-0.636999 -1.686001,-1.153 -3.769001,-1.153c-1.812,0 -3.32,0.391001 -3.682999,0.911001c-3.585999,-1.694 -7.173,-3.388 -10.759001,-5.083c-1.247999,-0.59 -2.673,-0.584001 -3.917999,0.014c-3.818001,1.837 -7.636001,3.674 -11.454,5.511c-0.863999,-0.125999 -1.907,-0.201 -3.032,-0.201c-2.977,0.000999 -5.385,0.518 -5.385,1.155001l0,3.459999c0,0.033001 0.033,0.064001 0.045,0.096001c-0.146,0.555 0.07,1.205 0.649,1.478001c5.641,2.664999 11.281,5.329 16.921999,7.993998c1.432001,0.677002 3.068001,0.671001 4.496,-0.015999c6.442001,-3.099998 12.883999,-6.198999 19.327,-9.299c0.484001,-0.233 0.651001,-0.785999 0.509003,-1.247c0.022999,-0.052999 0.051998,-0.105 0.051998,-0.16l0,-3.460001z" fill="#353535"/>
  <path id="svg_4" d="m20.615999,31.517c-5.640999,-2.521999 -11.280999,-5.044001 -16.921999,-7.566c-0.922,-0.412001 -0.926,-1.726999 -0.007,-2.146c6.395,-2.912001 12.789,-5.824 19.184,-8.736c1.243999,-0.567 2.67,-0.572001 3.917999,-0.014c5.880999,2.63 11.762999,5.258999 17.643999,7.889c0.754002,0.337 0.758003,1.414 0.006001,1.756001c-6.441998,2.934 -12.883999,5.868 -19.327,8.800999c-1.427999,0.651001 -3.063999,0.657001 -4.496,0.016001z" fill="#3f3f40"/>
  <path id="svg_5" d="m45,14.035c0,-0.637 -1.686001,-1.153 -3.769001,-1.153c-1.812,0 -3.32,0.391 -3.682999,0.911c-3.585999,-1.694 -7.173,-3.388 -10.759001,-5.083c-1.247999,-0.59 -2.673,-0.584 -3.917999,0.014c-3.818001,1.837 -7.636001,3.674 -11.454,5.511c-0.863999,-0.125999 -1.907,-0.200999 -3.032,-0.200999c-2.977,0.000999 -5.385,0.516999 -5.385,1.153999l0,3.460001c0,0.032999 0.033,0.063999 0.045,0.095999c-0.146,0.555 0.07,1.205 0.649,1.478001c5.641,2.664999 11.281,5.329 16.921999,7.993999c1.432001,0.677 3.068001,0.671 4.496,-0.015999c6.442001,-3.1 12.883999,-6.199001 19.327,-9.299002c0.484001,-0.233 0.651001,-0.785999 0.509003,-1.247c0.022999,-0.052999 0.051998,-0.105 0.051998,-0.16l0,-3.459z" fill="#353535"/>
  <path id="svg_6" d="m20.615999,23.877001c-5.640999,-2.522001 -11.280999,-5.044001 -16.921999,-7.566c-0.922,-0.412001 -0.926,-1.727001 -0.007,-2.146001c6.395,-2.912 12.789,-5.824 19.184,-8.736c1.243999,-0.567 2.67,-0.572 3.917999,-0.014c5.880999,2.63 11.762999,5.259 17.643999,7.889c0.754002,0.337 0.758003,1.414001 0.006001,1.756001c-6.441998,2.933999 -12.883999,5.867999 -19.327,8.801c-1.427999,0.650999 -3.063999,0.656 -4.496,0.016001z" fill="#3f3f40"/>
  <path id="svg_7" d="m18.747999,14.741c-0.001999,1.042 -2.761999,2.057 -5.092999,2.085999c-2.419,0.030001 -5.273,-0.993 -5.282,-2.051c-0.009,-1.061 2.842,-2.161 5.311,-2.135c2.333,0.024 5.066999,1.062 5.063999,2.1z" fill="#f9f9f9"/>
  <path id="svg_8" d="m17.038,18.471001c2.393,1.021999 4.785,2.045 7.177999,3.066999c1.054001,-1.559999 2.108,-3.120001 3.162001,-4.68c-3.447001,0.538 -6.893,1.076 -10.34,1.613001z" fill="#f9f9f9"/>
  <path id="svg_9" d="m21.860001,9.775c-1.101,0.401 -2.203001,0.801001 -3.304001,1.202001c1.507,0.132 3.014999,0.264 4.521999,0.395c0.480001,0.796 0.959002,1.592 1.439001,2.387c0.295,-0.722 0.59,-1.444 0.885,-2.165999c1.285999,-0.1 2.572001,-0.200001 3.858,-0.3c-0.997,-0.419001 -1.993999,-0.839 -2.991001,-1.259c0.254002,-0.608001 0.508001,-1.216001 0.762001,-1.825001c-0.969999,0.29 -1.939001,0.58 -2.909,0.870001c-1.07,-0.422001 -2.139999,-0.843 -3.209999,-1.265c0.316,0.654 0.632,1.308 0.948,1.960999z" fill="#f9f9f9"/>
  <path id="svg_10" d="m27.267,14.619c2.271,-0.906 4.542999,-1.813001 6.814001,-2.719001c1.961998,0.834001 3.924,1.668 5.885998,2.502001c-2.202,0.875999 -4.403,1.751999 -6.605,2.629c-2.031,-0.805 -4.063,-1.608 -6.094999,-2.412z" fill="#353535"/>
  <path id="svg_11" d="m34.082001,11.963c-0.005001,1.596 -0.010002,3.191 -0.014999,4.787c1.966999,-0.783 3.933998,-1.565 5.900997,-2.348c-1.961998,-0.813001 -3.924,-1.626 -5.885998,-2.439z" fill="#2f2f33"/>
 </g>
</svg>